<?xml version="1.0" encoding="UTF-8"?>
<!DOCTYPE svg PUBLIC "-//W3C//DTD SVG 1.1//EN" "http://www.w3.org/Graphics/SVG/1.1/DTD/svg11.dtd">
<!-- Creator: CorelDRAW X8 -->
<svg xmlns="http://www.w3.org/2000/svg" xml:space="preserve" width="210mm" height="290mm" version="1.1" style="shape-rendering:geometricPrecision; text-rendering:geometricPrecision; image-rendering:optimizeQuality; fill-rule:evenodd; clip-rule:evenodd"
viewBox="0 0 21000 29000"
 xmlns:xlink="http://www.w3.org/1999/xlink">
 <defs>
  <style type="text/css">
   <![CDATA[
    .fil0 {fill:black}
   ]]>
  </style>
 </defs>
 <g id="Camada_x0020_1">
  <metadata id="CorelCorpID_0Corel-Layer"/>
  <g id="_2268746702528">
   <g>
    <path class="fil0" d="M4451 10514c10,-94 271,-564 332,-674 82,58 158,545 162,622 -56,-4 -36,-6 -91,-62 -17,344 -172,-103 -172,-103 -86,50 -125,161 -231,217zm4143 -427c12,-55 445,-570 506,-577 11,124 53,698 -83,790l-4 -227c-13,57 7,59 -37,83 -94,50 -63,-19 -68,-27 -10,-20 -23,-168 -28,-207 -100,43 -187,142 -286,165zm764 480c14,-86 84,-114 139,-164l872 -922c44,-50 87,-109 124,-155 55,34 44,48 89,161 25,62 49,113 56,181 -79,53 -140,163 -201,202l258 -30c29,67 74,113 92,184 22,82 23,173 41,249 24,99 164,178 250,294 -57,74 -1015,528 -1183,635 290,-33 1101,-296 1313,-298l422 672c-287,160 -769,301 -1151,324 22,-125 434,-414 509,-559 -356,-4 -708,39 -1040,102 -145,28 -311,69 -458,110 -150,41 -279,97 -413,132 7,-67 95,-135 191,-247 34,-40 69,-66 108,-106l508 -564c-206,71 -596,354 -774,386 12,-57 80,-107 159,-179l511 -452 -226 44c28,-78 89,-94 121,-198 -116,29 -204,164 -317,198zm-2153 247c-3,-219 -225,-1120 -286,-1400 -176,-819 -273,-379 177,-1003l93 -108c41,47 66,122 100,193 198,418 64,286 29,594 59,-38 118,-97 185,-100l17 198c137,103 106,101 186,241 149,259 135,163 -259,778l429 -166c51,176 -122,590 -179,766 -44,137 -187,646 -239,717 -145,14 -477,-209 -642,-247 -97,64 -249,207 -349,242l69 -526c-121,61 -654,605 -749,638 11,-135 474,-955 542,-1166 -100,64 -213,162 -317,241 -131,101 -887,719 -974,733 15,-78 453,-642 530,-750 145,-203 406,-522 528,-717 -31,30 -182,133 -227,165 -143,98 -624,469 -707,484 13,-79 222,-368 281,-448 97,-133 188,-315 293,-419 67,-66 739,-599 788,-620 97,228 620,1588 681,1680zm4394 -1385c17,-86 271,-279 391,-409 125,-137 271,-267 407,-393 73,-67 736,-750 820,-772 36,71 101,277 67,342 -16,29 -121,141 -190,257l264 -48 -32 223c147,114 421,236 468,331 199,402 65,220 -43,499l231 -33c67,169 445,690 458,800l-879 -42c-18,156 -205,856 -266,993 -33,-24 -7,-2 -34,-30l-219 -335c-152,-249 -87,-155 -252,-338 -259,43 -737,128 -992,117 23,-68 290,-399 354,-483 108,-140 262,-320 349,-462 -136,84 -773,528 -867,548 34,-122 668,-717 729,-865l-246 80c16,-113 119,-141 135,-306 -248,36 -487,298 -653,326zm-569 187c-145,-102 -248,-308 -401,-407 -212,-138 -378,220 -464,308l-89 -29c42,-63 64,-45 111,-94l-135 -17 43 -77 -76 -25 -13 -99c-45,63 15,97 -99,113l41 89 -110 9c37,45 47,38 81,96 -43,37 -68,26 -92,43 -45,33 -3,25 41,73l-89 18c34,22 98,39 141,52l-5 124c-60,45 -136,109 -196,168l-30 -26c-2,-2 -7,-6 -10,-8l-51 -35c35,-36 26,-20 79,-46 -60,-36 -58,-14 -97,-61 35,-47 36,-48 98,-64l-124 -37c-5,-50 0,-44 32,-77 -97,-65 -58,32 -92,-118 -13,24 -18,56 -30,73 -33,47 -10,7 -59,45l28 70c-25,8 -40,7 -53,11l-55 25c59,30 63,25 84,94 -127,12 -171,-137 -230,-228 -88,-136 -45,-130 -179,-175 -46,-16 -47,-15 -74,-43l128 -84 -135 -18c-10,-41 3,-35 29,-79 -84,-37 -55,4 -100,-76 -49,113 10,29 -85,76l36 70c-63,25 -59,2 -113,38 53,34 68,32 91,93 -211,64 -178,-2 -437,-297l-550 -641c-70,-81 -125,-136 -198,-211 -99,-101 -317,-269 -468,-328 -35,30 -272,460 -454,645 -45,45 -79,93 -124,143 -227,257 -469,465 -741,664l-660 460c-105,69 -97,56 -211,8 -71,-29 -139,-60 -213,-77 -87,300 -391,702 -567,873 -240,234 -515,474 -736,722 -59,66 -106,136 -160,196 -66,74 -132,117 -188,185 -73,87 -76,128 -100,263 -15,83 -120,140 -179,188 -200,162 -349,379 -541,543 -93,79 -101,150 -236,111 21,-32 0,-8 28,-33l103 -72 -132 -14c-5,-52 3,-46 34,-79l-83 -13 -19 -105c-35,119 -1,74 -96,116 35,42 26,20 39,73l-110 22 96 97 -129 55 78 38c-27,25 14,-1 -44,28 -12,6 -46,15 -50,16 34,17 36,14 63,25l76 39c-30,67 -66,89 -149,89l44 -74c-120,-67 -35,20 -105,-111 -3,33 1,43 -16,69l-40 34c-3,2 -9,5 -12,6 -2,1 -8,2 -12,5l41 72 -114 9c53,77 56,20 80,118 -128,21 -118,12 -254,-4l38 -83c-117,-26 -61,-4 -97,-109 -21,43 -17,73 -53,102l1 90 -113 12 84 95 -124 60c5,2 25,12 27,14 39,29 14,5 33,33l-65 29c59,38 83,30 132,65 -43,73 -626,491 -749,597l1253 -508c103,87 167,155 325,120 145,-33 241,-96 363,-131l-35 203c285,68 277,46 549,21 -18,-110 -85,-268 -135,-377 -55,-123 -136,-217 -186,-312 -142,-274 349,-382 585,-355 523,61 575,787 720,1291 57,-53 197,-412 233,-484 156,-316 313,-631 503,-920 122,-186 326,-123 411,78 334,-21 715,-72 1044,-52l462 0c114,0 133,46 214,25 229,-58 428,-101 624,67 205,176 206,486 353,715l197 -29c20,-62 31,-266 40,-334 15,-112 32,-214 50,-329 21,-129 4,-220 141,-236 139,-17 180,68 248,150 338,-39 358,-46 658,-46 236,0 214,-126 572,1 70,25 184,18 272,28 72,8 531,41 577,34 104,-17 111,-70 265,-38 80,16 161,59 212,93 85,56 52,18 192,-16 428,-104 798,182 973,487 133,234 -9,153 354,248 140,36 381,80 528,69 71,-429 41,-535 368,-714 238,-131 552,-193 857,-231 408,-52 615,-64 721,305 45,159 3,331 -73,436 -97,134 -314,29 -456,103 11,8 511,234 532,238 5,-269 101,-526 114,-789 16,-298 483,-246 664,-164 519,237 82,851 137,1444 46,34 387,161 442,102 38,-71 31,-205 31,-297 -1,-246 -34,-559 -113,-768 -73,-195 -64,-152 -164,-281 -75,-96 -55,-237 54,-285 232,-100 549,108 642,212 256,286 197,359 334,557 29,-450 -141,-713 27,-797 191,-95 462,-107 638,4 388,247 194,939 195,1322 0,129 536,296 689,289 454,-20 236,-371 555,-448 239,-57 587,120 793,178 175,50 628,197 795,186 -226,-80 -607,-292 -753,-494 -408,-567 -532,-525 -1212,-920 -1093,-638 -981,-1408 -1222,-1766 -46,-69 -147,-65 -216,-103 -23,-14 -44,-20 -72,-31 28,-33 47,-31 85,-56l-102 -50c38,-50 64,-46 117,-92l-131 -25 36 -64 -69 -48c-20,-26 -13,-41 -27,-69 -54,116 47,53 -84,99l29 81c-90,12 -118,36 -187,19 15,-54 18,-29 76,-61l-99 -51c24,-35 86,-82 112,-101l-129 -13c8,-62 8,-38 28,-84 -110,-19 -59,-16 -98,-110 -20,99 7,90 -86,108 24,47 21,28 27,86l-156 23 42 -80c-105,-44 -61,37 -103,-116 -30,78 17,28 -52,49 -25,-18 -36,-17 -54,-28 -3,-2 -8,-5 -11,-7l-44 -42c48,-22 60,-34 104,-64l-124 -27 40 -79c-68,-25 -94,-1 -91,-113 -54,134 16,63 -92,112l32 80c-142,6 -144,-34 -222,-111 -67,-67 -112,-95 -156,-202 -71,-172 -158,-309 -246,-439 -79,48 -44,83 -158,14l120 -96 -137 -14c11,-56 14,-49 42,-83 -118,-18 -74,8 -103,-110 -38,87 13,91 -89,104l33 84 -110 18c43,51 63,52 88,108 -174,60 -136,0 -306,-159 -89,-83 -166,-165 -265,-249 -92,-76 -181,-155 -282,-233 -91,-70 -207,-135 -305,-211 -181,-141 -528,-425 -673,-608 -39,-49 -72,-90 -117,-150 -92,-119 -104,-213 -301,-238 -204,153 -317,390 -483,554 -84,83 -197,150 -267,248 -79,111 -133,205 -217,299 -239,271 -572,465 -858,690 -104,81 -191,168 -291,233z"/>
    <path class="fil0" d="M11083 13167c757,-41 663,1649 189,1928 -272,161 -513,-451 -521,-847 -12,-583 80,-682 332,-1081zm-5607 257c169,-20 609,-88 740,-133 100,-34 125,-70 193,-128 91,-77 24,-73 131,-151 58,-42 91,-35 80,-133 -213,-77 -1538,76 -1685,31 -24,-49 -10,-81 -40,-119l-87 -67c-73,141 -175,289 -261,445 -165,299 -318,622 -456,931 -51,113 -139,418 -209,483 -37,-47 -119,-476 -147,-581 -132,-496 -230,-1390 -1003,-944 45,71 105,132 151,234 302,669 451,1394 651,2096l101 -16c128,283 634,130 642,121 34,-88 74,-394 103,-518 106,-443 259,-873 428,-1295 23,-57 18,-58 52,-86 41,75 33,1214 43,1410 -319,86 -53,548 46,559 90,-19 309,-138 433,-189 156,-64 295,-116 452,-173 147,-53 318,-108 471,-149 69,-19 197,-41 255,-65 75,-32 100,-111 175,-142l17 695c109,-98 69,12 154,-154 55,-17 4,-4 58,6 37,-119 23,-81 86,-145 40,-41 50,-91 85,-144 56,-83 46,-40 57,-179 19,-225 35,-877 86,-1009l50 53c13,23 19,40 28,60 164,357 408,794 623,1121 27,41 53,72 70,122 18,53 23,92 47,134 93,159 446,72 544,-55 2,-139 -40,-340 -54,-492 -42,-440 -22,-885 -17,-1326l670 -37c35,702 41,1405 59,2108l30 -87c81,25 -9,7 58,41 33,-84 27,-42 68,-93l68 -75c3,-2 7,-5 10,-8l130 -189c99,-227 126,-865 146,-1139 15,-193 15,-393 36,-584l413 -13c-45,232 -90,358 -90,632 0,714 368,1313 1024,1382 599,64 973,-714 973,-1329l0 -160c0,-679 -499,-1183 -957,-1035 -96,31 -99,75 -142,145 -84,-57 -205,-261 -406,-216 -133,30 -66,46 -265,33 -89,-5 -185,-13 -275,-19 -191,-13 -386,0 -546,-65 -216,-88 -288,28 -499,28 -129,1 -245,0 -374,12 -54,5 -130,3 -177,17 -34,10 -34,12 -57,30l-50 45c-109,-76 -64,32 -121,-119 -25,-68 -51,-66 -84,-94 -15,135 -48,286 -63,420l-106 1281c-10,31 -7,18 -17,32 -92,-97 -428,-927 -484,-1061 -66,-162 -132,-421 -257,-506 -171,-117 -423,-50 -618,15 0,128 33,285 37,416l29 1196c-824,32 -1057,227 -1374,274l47 -444c192,-49 470,-94 605,-212 43,-38 -11,-13 64,-44 47,-18 39,-2 76,-32l98 -98c101,-93 109,-99 146,-263l-947 78 29 -371z"/>
    <path class="fil0" d="M14782 13306c89,-119 93,-266 17,-392 -87,-145 -151,-147 -357,-126 -289,29 -578,78 -838,178 -295,113 -396,240 -412,606 -14,291 255,452 468,551 448,208 1616,478 880,722 -236,78 -595,116 -834,-18 -366,-204 -255,-594 -305,-704 -13,-4 5,-51 -52,22l-75 144c-124,414 -40,725 256,1014 152,149 355,222 647,215 998,-25 1104,-990 692,-1411 -426,-435 -1062,-479 -1118,-596 408,-154 622,-152 1031,-205z"/>
    <path class="fil0" d="M16358 12837c39,61 37,19 60,95 -127,-18 -71,-103 -212,-88 14,68 43,59 88,123 23,35 48,86 67,130 139,324 168,664 161,1027 -9,454 -187,970 -559,1053 -485,-833 -5,-1883 -107,-2110 -81,-179 -376,-233 -593,-150 -17,87 1,138 -24,241 -130,553 -177,999 3,1555 182,564 703,936 1207,807 880,-225 849,-2427 -91,-2683z"/>
    <path class="fil0" d="M18163 14538c-143,47 -326,139 -447,167 0,-75 36,-209 53,-301 19,-101 33,-196 47,-301 85,-635 266,-1578 -594,-1293 104,415 42,978 26,1418 -6,160 -23,551 -51,696 -22,114 -267,111 -22,505 214,344 283,198 411,111 268,-183 630,-416 923,-554 142,-67 227,-44 244,-311 6,-94 17,-62 38,-148l-103 -25c0,-34 5,-15 13,-34 18,-43 21,11 10,-25 -203,-13 -386,40 -548,95z"/>
    <path class="fil0" d="M12599 9994l724 -76c2,-11 4,-22 4,-20l41 -350c14,-129 19,-262 38,-382 -57,24 -720,732 -807,828z"/>
    <path class="fil0" d="M3089 14374c-1,-87 -94,-374 -132,-447 -141,34 -502,468 -570,660l702 -213z"/>
    <path class="fil0" d="M5613 13624c188,-4 364,-38 563,-41 254,-5 330,-81 382,175l-12 -496c-92,77 -43,76 -187,139 -162,71 -465,106 -660,143 -95,19 -84,-1 -86,80z"/>
    <path class="fil0" d="M10984 8246c151,49 201,110 250,270 39,-156 91,-224 215,-288 -206,-121 -174,-165 -238,-321 -1,-4 -3,-10 -6,-14 -35,203 -73,263 -221,353z"/>
    <path class="fil0" d="M9589 7441c86,51 186,58 241,236 46,-47 63,-108 97,-151 44,-54 79,-55 128,-109 -191,-74 -178,-200 -234,-275 -81,156 -56,215 -232,299z"/>
   </g>
  </g>
 </g>
</svg>
