<?xml version="1.0" encoding="UTF-8"?>
<!DOCTYPE svg PUBLIC "-//W3C//DTD SVG 1.1//EN" "http://www.w3.org/Graphics/SVG/1.1/DTD/svg11.dtd">
<!-- Creator: CorelDRAW X8 -->
<svg xmlns="http://www.w3.org/2000/svg" xml:space="preserve" width="210mm" height="290mm" version="1.1" style="shape-rendering:geometricPrecision; text-rendering:geometricPrecision; image-rendering:optimizeQuality; fill-rule:evenodd; clip-rule:evenodd"
viewBox="0 0 21000 29000"
 xmlns:xlink="http://www.w3.org/1999/xlink">
 <defs>
  <style type="text/css">
   <![CDATA[
    .str0 {stroke:#666633;stroke-width:7.62}
    .fil2 {fill:#666633}
    .fil0 {fill:#72644C}
    .fil1 {fill:#A48F69}
   ]]>
  </style>
   <clipPath id="id0">
    <rect x="-23739" y="6663" width="18193" height="23157"/>
   </clipPath>
 </defs>
 <g id="Camada_x0020_1">
  <metadata id="CorelCorpID_0Corel-Layer"/>
  <g style="clip-path:url(#id0)">
   <image transform="matrix(0.971952 -0.23518 0.23518 0.971952 -23739.2 9898.84)" x="0" y="0" width="13758" height="20496" xlink:href="logo_Images\logo_ImgID1.png"/>
  </g>
  <path class="fil0" d="M11586 14597c-119,-259 -42,-405 251,-426l2825 1668 -251 425c-942,-556 -1884,-1112 -2825,-1667z"/>
  <path class="fil0" d="M10694 14673c119,-259 42,-405 -251,-426l-2825 1668 251 425c942,-556 1884,-1111 2825,-1667z"/>
  <path class="fil1" d="M8058 8259l1461 219c-607,4047 -1173,7826 -1780,11873 -369,210 -837,399 -1502,49l1821 -12141z"/>
  <path class="fil0" d="M7671 17089c-118,-258 -42,-404 251,-425l2826 1667 -251 426c-942,-556 -1884,-1112 -2826,-1668z"/>
  <path class="fil1" d="M12835 8482l1462 -222c615,4046 1230,8091 1845,12137 -660,343 -1130,160 -1501,-38l-1806 -11877z"/>
  <path class="fil0" d="M14609 17147c118,-259 42,-405 -251,-426l-2826 1668 251 425c942,-556 1884,-1111 2826,-1667z"/>
  <path class="fil1" d="M10457 10164l1478 0c0,4092 0,8185 0,12277 -493,295 -985,292 -1478,0l0 -12277z"/>
  <ellipse class="fil0" cx="11152" cy="9156" rx="4480" ry="2822"/>
  <rect class="fil2 str0" x="6682" y="8217" width="8942" height="992"/>
  <ellipse class="fil1" cx="11152" cy="8395" rx="4480" ry="2822"/>
 </g>
</svg>
