<?xml version="1.0" encoding="UTF-8"?>
<!DOCTYPE svg PUBLIC "-//W3C//DTD SVG 1.1//EN" "http://www.w3.org/Graphics/SVG/1.1/DTD/svg11.dtd">
<!-- Creator: CorelDRAW X8 -->
<svg xmlns="http://www.w3.org/2000/svg" xml:space="preserve" width="210mm" height="290mm" version="1.1" style="shape-rendering:geometricPrecision; text-rendering:geometricPrecision; image-rendering:optimizeQuality; fill-rule:evenodd; clip-rule:evenodd"
viewBox="0 0 21000 29000"
 xmlns:xlink="http://www.w3.org/1999/xlink">
 <defs>
  <style type="text/css">
   <![CDATA[
    .fil0 {fill:black}
   ]]>
  </style>
 </defs>
 <g id="Camada_x0020_1">
  <metadata id="CorelCorpID_0Corel-Layer"/>
  <path class="fil0" d="M7055 16066c25,369 63,805 158,1205 117,496 216,740 380,1216 -603,-473 -719,-1872 -538,-2421zm-3184 5620c118,-404 402,-1139 655,-1583 323,-570 942,-1381 1529,-1718 767,-441 1354,669 1896,904 -32,-326 -117,-249 -163,-584 -31,-234 -3,-438 46,-653 417,-1827 1228,-501 1694,-438 -74,-293 -201,-352 -220,-810 -18,-409 90,-529 194,-895 1188,-267 844,155 1329,403 163,32 219,50 170,-192l-158 -398c9,-39 267,229 287,212 704,834 2533,1320 3505,58 -241,147 -244,249 -700,472 -559,272 -1437,74 -1988,-227 -313,-210 -457,-435 -610,-537l-215 -266c412,39 781,119 635,-151 -498,-439 -1531,-183 -7,-1564 597,-185 762,27 1189,5l-662 -616c-226,-191 -102,-7 -229,-258 217,-448 631,-744 1084,-933 592,-247 1487,-44 1642,-132 -267,-374 -1578,-715 -1720,-912 320,-638 541,-792 1152,-1145 235,-135 364,-196 652,-259 696,-154 1198,-293 1947,-326 -332,-130 -1996,-302 -2374,-311 -1092,76 -1911,217 -2607,457 -1220,466 -2807,1381 -3253,2724 361,228 69,-21 541,-74 747,-83 778,742 403,1099 -376,358 -362,48 -635,-81 -149,391 7,459 -316,794 -461,504 -509,138 -882,341 229,311 345,171 456,735 -158,345 -814,893 -1307,608 -256,-481 52,-707 -39,-1103 -926,74 -1731,1819 -2122,2592 -389,769 -1073,3712 -799,4762zm11841 -12642c-870,49 -3035,353 -3618,515 -702,200 -1159,550 -1479,731 -272,152 -1279,1000 -1623,1307 636,-877 1473,-1650 2832,-2175 979,-233 2607,-590 3888,-378zm-6481 8204c-226,-213 -401,-627 -445,-929 67,78 348,737 445,929zm-5075 2391c60,-1550 1214,-4158 2078,-4673 -872,1051 -1999,3911 -2078,4673zm4316 -5025c9,-19 -52,-101 210,-62 76,12 222,26 308,95 -270,110 -382,201 -518,-33zm765 -341c-27,-36 -57,-111 -92,-239 -35,-128 -32,-82 -54,-221 208,28 300,8 318,173 15,131 -135,246 -172,287zm2938 -724c-442,-68 -563,-75 -980,-158 -259,-55 -427,-113 -856,-216 588,-86 1498,210 1836,374zm-1259 -1821c51,-23 756,-229 1504,-248 623,-16 1249,79 1437,173 -312,-7 -2760,36 -2941,75z"/>
 </g>
</svg>
